<svg width="375" height="812" viewBox="0 0 375 812" fill="none" xmlns="http://www.w3.org/2000/svg">
<g clip-path="url(#clip0_28_2)">
<rect width="375" height="812" fill="white"/>
<path d="M74.7311 67.8105C75.98 101.244 68.6283 125.817 86.4945 152.456C100.116 172.766 119.686 168.616 135.594 186.663C155.991 209.802 146.431 241.779 169.862 260.873C195.633 281.875 219.08 274.208 250.671 270.729C287.514 266.671 310.689 260.73 340.176 235.363C378.007 202.818 384.762 166.335 400.016 115.351C418.266 54.3537 452.957 -0.94603 414.848 -48.7227C397.528 -70.4367 380.577 -73.3792 356.542 -84.0884C293.034 -112.386 248.472 -114.404 182.136 -96.2635C142.49 -85.4214 110.624 -85.9944 86.4945 -48.7227C62.5874 -11.7935 73.0216 22.0455 74.7311 67.8105Z" fill="#E9F3DB"/>
<path d="M-1 164C-1 164 27.9213 140.975 50 134.5C96.6718 120.812 132.923 133.739 171 164C190.005 179.104 196.779 191.973 210.5 212C225.861 234.421 234.704 247.462 244 273C256.025 306.034 238.448 332.456 257.5 362C281.258 398.84 333.445 375.686 358 412C370.213 430.062 377 464.5 377 464.5V916.5H-1V164Z" fill="#7ACED0" fill-opacity="0.51"/>
<path d="M377 302.5C377 302.5 334.71 280.016 305.5 280.5C269.559 281.095 250.046 295.822 221 317C203.035 330.099 192.278 337.964 180 356.5C167.543 375.305 163.915 388.38 159.5 410.5C154.264 436.733 170.846 454.775 159.5 479C145.164 509.61 113.816 505.592 86.5 525.5C65.848 540.551 52.2404 547.192 35.5 566.5C16.3173 588.625 10.1551 604.925 -1.00001 632C-37.2249 719.923 -1.00001 875.5 -1.00001 875.5H377V302.5Z" fill="#63C19F" fill-opacity="0.48"/>
</g>
<defs>
<clipPath id="clip0_28_2">
<rect width="375" height="812" fill="white"/>
</clipPath>
</defs>
</svg>
