<svg width="30" height="30" viewBox="0 0 30 30" fill="none" xmlns="http://www.w3.org/2000/svg">
<path d="M6.91382 24.8569H13.5667L17.9656 29.2501C18.202 29.4878 18.4831 29.6764 18.7927 29.8051C19.1022 29.9338 19.4342 30 19.7695 30C19.99 29.9997 20.2097 29.9715 20.4232 29.9163C20.8548 29.8074 21.2501 29.5867 21.5691 29.2764C21.8882 28.9661 22.1199 28.5773 22.2408 28.149L30 1.76602L6.91382 24.8569Z" fill="#1E1E1E"/>
<path d="M5.12126 23.1071L28.2287 0L1.85984 7.77528C1.43049 7.89735 1.04052 8.12955 0.728632 8.44883C0.416739 8.76811 0.193759 9.16337 0.0818148 9.59541C-0.0301298 10.0274 -0.0271487 10.4812 0.0904624 10.9118C0.208074 11.3423 0.436227 11.7346 0.752288 12.0497L5.12126 16.4142V23.1071Z" fill="#1E1E1E"/>
</svg>
